<svg xmlns="http://www.w3.org/2000/svg" xml:space="preserve" width="16" height="16"><g fill="#222"><path d="M101.37 75.446v43.932h4.485v-5.851h4.094l1.352 5.851h4.485l-9.93-42.996v-.935h-1.972zm4.486 20.356 3.3 14.29h-3.3z" style="paint-order:markers stroke fill" transform="matrix(.2356 0 -.02766 .23398 -19.59 -14.792)"/><path d="m137.6 74.924-5.157 43.628h4.485l.687-5.81h4.094l.664 5.81h4.486l-4.883-42.699.11-.929h-1.972zm2.096 20.215 1.623 14.191h-3.301zM104.8 74.924v43.628h9.2l.777-3.536h-5.394V74.924zm22.55 4.726 1.793-3.683s-2.298-1.135-4.47-1.037-4.227.91-5.739 3.095-1.514 5.024-1.008 7.606c.506 2.583 2.31 6.06 3.497 8.271s3.829 7.092 4.122 11.008c.293 3.917-.187 5.433-.575 6.408s-1.414 3.553-3.802 3.271-2.881-1.78-2.881-1.78l-1.784 3.823s1.698 1.92 5.344 1.92c3.646-.001 5.59-2.056 6.74-4.936s1.212-8.158.524-11.247-2.997-8.662-4.505-11.56c-1.509-2.9-3.513-6.924-2.617-9.388.896-2.465 2.3-2.898 3.502-2.716s1.86.944 1.86.944z" style="paint-order:markers stroke fill" transform="translate(-19.59 -14.792)scale(.2356)"/></g></svg>