<svg xmlns="http://www.w3.org/2000/svg" xml:space="preserve" width="16" height="16"><path d="M7 2.003a5.97 5.97 0 0 0-4.24 1.75L7 7.998l4.241-4.24a6.05 6.05 0 0 0-4.24-1.755M5.998 4a1.002 1.002 0 1 1 0 2.003 1.002 1.002 0 0 1 0-2.003m-4.12.877A5.999 5.999 0 0 0 7 14a5.96 5.96 0 0 0 3.115-.884l-8.24-8.24Z" style="fill:#222;fill-opacity:.5;stroke-width:3.75029;stroke-linecap:round;paint-order:markers stroke fill"/><circle cx="10.001" cy="8.002" r="1.002" style="fill:#222;stroke-width:5.00041;stroke-linecap:round;paint-order:markers stroke fill;fill-opacity:1"/><circle cx="14" cy="8.002" r="1.002" style="fill:#222;stroke-width:5.00041;stroke-linecap:round;paint-order:markers stroke fill;fill-opacity:1"/><g style="fill:#222;fill-opacity:1"><path d="M1.002 0 0 1.002 15.002 16l.998-.998" style="font-weight:800;font-size:3.36371px;font-family:Inter;-inkscape-font-specification:&quot;Inter Ultra-Bold&quot;;text-align:center;text-anchor:middle;fill:#222;fill-opacity:1;stroke-width:1.58928;stroke-linecap:round;paint-order:markers stroke fill"/></g></svg>