<svg xmlns="http://www.w3.org/2000/svg" xml:space="preserve" width="16" height="16"><g fill="#222" style="display:inline"><path d="M3.176.264a.4.4 0 0 0-.258.103c-.06.053-.1.11-.133.17a2 2 0 0 0-.158.416c-.09.318-.165.718-.24 1.115a14 14 0 0 1-.23 1.067c-.04.138-.082.249-.112.302l-.002.002H.529a.265.265 0 0 0-.265.266.265.265 0 0 0 .265.264h1.588c.105 0 .198-.05.258-.102a.6.6 0 0 0 .13-.17 2 2 0 0 0 .161-.416c.09-.318.165-.718.24-1.115s.15-.79.229-1.068c.04-.14.083-.25.113-.303L3.25.793h.455A.265.265 0 0 0 3.97.529a.265.265 0 0 0-.264-.265Z" color="#000" style="-inkscape-stroke:none;paint-order:markers stroke fill" transform="translate(.006 -.008)scale(3.77983)"/><g fill-opacity=".5"><path fill-rule="evenodd" d="M8.473 7.635a.95.95 0 0 0-.28-.657L5.392 4.256a.945.945 0 0 0-1.304 0L1.29 6.978A.93.93 0 0 0 1.272 8.3a.933.933 0 0 0 1.323.015l1.21-1.183v4.048a.934.934 0 0 0 1.867 0V7.136l1.217 1.18a.934.934 0 0 0 1.584-.68"/><path d="M13.008.994h-12v2h12Z"/></g></g></svg>