<svg xmlns="http://www.w3.org/2000/svg" width="16" height="16" viewBox="0 0 4.233 4.233"><g fill="#222"><path d="M3.176.264a.4.4 0 0 0-.258.103c-.06.053-.1.11-.133.17a2 2 0 0 0-.158.416c-.09.318-.165.718-.24 1.115a14 14 0 0 1-.23 1.067c-.04.138-.082.249-.112.302l-.002.002H.529a.265.265 0 0 0-.265.266.265.265 0 0 0 .265.264h1.588c.105 0 .198-.05.258-.102s.097-.11.13-.17a2 2 0 0 0 .161-.416c.09-.318.165-.718.24-1.115s.15-.79.229-1.068c.04-.14.083-.25.113-.303L3.25.793h.455A.265.265 0 0 0 3.97.529a.265.265 0 0 0-.264-.265z" color="#000" style="-inkscape-stroke:none;paint-order:markers stroke fill"/><g fill-opacity=".5"><path fill-rule="evenodd" d="M2.24 2.022a.25.25 0 0 0-.074-.174l-.741-.72a.25.25 0 0 0-.345 0l-.74.72a.246.246 0 0 0-.005.35c.094.098.25.1.35.004l.32-.313V2.96a.247.247 0 0 0 .494 0V1.89l.322.312a.247.247 0 0 0 .419-.18"/><path d="M3.44.265H.265v.529H3.44z"/></g></g></svg>