<svg xmlns="http://www.w3.org/2000/svg" xml:space="preserve" width="16" height="16"><path fill="#222" fill-opacity=".5" d="M12.003.998a1.5 1.5 0 0 0-.975.39 2.3 2.3 0 0 0-.503.642 7.6 7.6 0 0 0-.597 1.572c-.34 1.202-.624 2.714-.907 4.215a53 53 0 0 1-.87 4.033c-.151.521-.31.94-.423 1.141L7.72 13H1.998a1 1 0 0 0-1.002 1.005 1 1 0 0 0 1.002.998H8c.397 0 .748-.189.975-.385a2.2 2.2 0 0 0 .492-.643 7.6 7.6 0 0 0 .608-1.572c.34-1.202.624-2.714.907-4.215s.567-2.986.866-4.037c.151-.529.314-.945.427-1.145l.008-.008h1.72a1 1 0 0 0 1-.998 1 1 0 0 0-.998-1.002Z" color="#000" style="stroke-width:3.77983;-inkscape-stroke:none;paint-order:markers stroke fill"/></svg>