<svg xmlns="http://www.w3.org/2000/svg" xml:space="preserve" width="16" height="16"><path fill="#222" d="M2.072 2.359a1.025 1.025 0 0 0-.544 1.892v7.5a1.021 1.021 0 0 0 .544 1.892 1.025 1.025 0 0 0 .448-1.946V9.71l3.536-2.043v-3.1l-.841-.84a1.023 1.023 0 1 0-1.989-.343A1.025 1.025 0 0 0 4.47 4.385l.595.593v2.117L2.518 8.563V4.305a1.023 1.023 0 0 0-.445-1.946m5.292 0a1.025 1.025 0 0 0-.388 1.974v5.492l3.2-1.848v1.724l4.254-2.42V4.275a1.023 1.023 0 0 0-.502-1.918 1.025 1.025 0 0 0-.486 1.927v2.419L11.17 7.995V4.26a1.021 1.021 0 0 0-.533-1.9 1.025 1.025 0 0 0-.46 1.94v2.533L7.969 8.107V4.21a1.023 1.023 0 0 0-.606-1.851m-5.291.62a.404.404 0 1 1 0 .809.404.404 0 0 1 0-.808m2.179 0a.404.404 0 1 1 0 .808.404.404 0 0 1 0-.808m3.112 0a.404.404 0 1 1 0 .808.404.404 0 0 1 0-.808m3.275 0a.404.404 0 1 1 0 .808.404.404 0 0 1 0-.808m3.29 0a.404.404 0 1 1 0 .808.404.404 0 0 1 0-.808M2.071 12.212a.405.405 0 1 1 0 .81.405.405 0 0 1 0-.81" color="#000" style="stroke-width:1.64225"/></svg>