<svg xmlns="http://www.w3.org/2000/svg" xml:space="preserve" width="32" height="32" viewBox="0 0 8.467 8.467"><path fill="#222" d="M.624.798A.624.624 0 0 0 .293 1.95v4.567a.622.622 0 0 0 .331 1.152.624.624 0 0 0 .273-1.185v-1.21L3.05 4.03V2.143l-.512-.512a.623.623 0 1 0-1.211-.209.624.624 0 0 0 .757.61l.362.361v1.289l-1.55.894V1.983A.623.623 0 0 0 .625.798m3.222 0A.624.624 0 0 0 3.611 2v3.344L5.56 4.219v1.05l2.59-1.474v-1.83A.623.623 0 0 0 7.844.797a.624.624 0 0 0-.296 1.173v1.473l-1.383.787V1.955A.622.622 0 0 0 5.84.798a.624.624 0 0 0-.28 1.181v1.543l-1.345.776V1.925A.623.623 0 0 0 3.846.798m-3.222.378a.246.246 0 1 1 0 .492.246.246 0 0 1 0-.492m1.327 0a.246.246 0 1 1 0 .492.246.246 0 0 1 0-.492m1.895 0a.246.246 0 1 1 0 .492.246.246 0 0 1 0-.492m1.994 0a.246.246 0 1 1 0 .492.246.246 0 0 1 0-.492m2.003 0a.246.246 0 1 1 0 .492.246.246 0 0 1 0-.492M.624 6.798a.246.246 0 1 1 0 .493.246.246 0 0 1 0-.493" color="#000"/></svg>