<svg xmlns="http://www.w3.org/2000/svg" xml:space="preserve" width="16" height="16"><path fill="#222" d="M5.426 1.278C2.871 2.354 1.06 4.96 1.06 8.005s1.811 5.641 4.366 6.717c-1.702-1.295-2.86-3.814-2.86-6.717 0-2.901 1.158-5.432 2.86-6.727m5.201 0c1.702 1.295 2.86 3.826 2.86 6.727s-1.158 5.421-2.86 6.717c2.313-.974 4.012-3.195 4.313-5.866V7.155c-.302-2.673-2-4.903-4.313-5.877M6.339 3.81a4.53 4.53 0 0 0-2.834 4.194 4.52 4.52 0 0 0 2.834 4.186c-1.105-.807-1.857-2.377-1.857-4.186S5.234 4.617 6.34 3.81m3.375 0c1.105.807 1.857 2.385 1.857 4.194 0 1.808-.752 3.379-1.857 4.186a4.52 4.52 0 0 0 2.834-4.186A4.53 4.53 0 0 0 9.714 3.81M8.026 5.678a2.322 2.322 0 1 0 0 4.645 2.322 2.322 0 0 0 0-4.645" style="fill:#222;fill-opacity:1;paint-order:markers stroke fill"/></svg>